<?xml version="1.0" encoding="UTF-8"?>
<svg version="1.1" xmlns="http://www.w3.org/2000/svg" width="480" height="480">
<path d="M0 0 C0.6581369 0.00021149 1.3162738 0.00042297 1.99435425 0.00064087 C32.17656822 0.09717784 58.35729404 12.09453488 80.125 32.625 C109.86405588 63.8537674 110.4375 97.49046872 110.4375 140.375 C44.4375 140.375 -21.5625 140.375 -89.5625 140.375 C-86.14897709 171.09670619 -80.60231457 199.11743656 -55.98828125 219.578125 C-35.050587 235.08752815 -11.07459908 241.85418797 14.78125 238.22265625 C38.50991085 234.27951114 58.68658849 221.19061888 72.94140625 202.01953125 C76.22903562 197.38267989 78.85664344 192.41552438 81.390625 187.3359375 C83.84900745 183.77972777 86.39730069 181.78690303 90.4375 180.375 C93.28201689 179.95421348 96.00824231 179.98861263 98.875 180.125 C99.60654297 180.14304687 100.33808594 180.16109375 101.09179688 180.1796875 C102.8742778 180.22628831 104.65607286 180.29801155 106.4375 180.375 C105.29169236 186.53494786 103.595732 191.98445805 100.875 197.625 C100.34664551 198.72569824 100.34664551 198.72569824 99.80761719 199.84863281 C87.19230863 225.4015794 64.84901256 245.32110257 38.0546875 255.0390625 C34.22388869 256.32131969 30.37470301 257.46757203 26.4375 258.375 C25.64553223 258.55756348 24.85356445 258.74012695 24.03759766 258.92822266 C16.29819279 260.52677915 8.6986313 260.76049286 0.8125 260.75 C0.15275177 260.74978851 -0.50699646 260.74957703 -1.18673706 260.74935913 C-11.88168916 260.71520133 -21.44018551 259.79002562 -31.5625 256.375 C-32.70074219 256.00117188 -33.83898437 255.62734375 -35.01171875 255.2421875 C-64.53351801 244.69120126 -86.26879982 222.58586623 -99.56933594 194.60009766 C-101.22008273 190.90174312 -102.63010495 187.14451996 -103.9375 183.3125 C-104.2773291 182.32491699 -104.2773291 182.32491699 -104.62402344 181.31738281 C-105.35546753 179.01965845 -105.96961736 176.71248946 -106.5625 174.375 C-106.83102783 173.36759766 -107.09955566 172.36019531 -107.3762207 171.32226562 C-110.32523417 158.39594615 -110.05509478 145.28806421 -110.00854492 132.09472656 C-109.99935586 129.36817734 -110.00628933 126.64248459 -110.02905273 123.91601562 C-110.33888938 86.60980738 -101.66110901 56.6805949 -75.125 29.625 C-54.86528831 9.55406143 -28.24443576 -0.03769515 0 0 Z M-62 46.375 C-74.93112072 59.35128705 -82.75944742 75.6074658 -86.9375 93.3125 C-87.09331543 93.95421143 -87.24913086 94.59592285 -87.40966797 95.25708008 C-89.17149959 103.60711252 -89.08118439 111.71131893 -89.5625 120.375 C-30.1625 120.375 29.2375 120.375 90.4375 120.375 C90.4375 95.91805146 86.0889275 72.23238585 69.4375 53.375 C68.43976563 52.16457031 68.43976563 52.16457031 67.421875 50.9296875 C51.65626453 32.38524641 29.16504711 22.53536684 5.15234375 20.56640625 C-20.59362931 19.11313429 -43.44595601 28.83299478 -62 46.375 Z " fill="white" transform="translate(129.5625,119.625)"/>
<path d="M0 0 C3.16634636 -0.11760715 6.33212074 -0.18771024 9.5 -0.25 C10.386875 -0.28351563 11.27375 -0.31703125 12.1875 -0.3515625 C19.91840101 -0.46525222 24.94234194 1.27135823 30.72265625 6.4296875 C31.47417969 7.27789062 32.22570312 8.12609375 33 9 C33.72058594 9.80695313 34.44117188 10.61390625 35.18359375 11.4453125 C40.93251291 18.28024932 46.27190147 25.35534914 51.53369141 32.57104492 C55.69808402 38.27048737 59.961833 43.87910105 64.3125 49.4375 C68.75551351 55.11441497 73.14571667 60.8205671 77.453125 66.6015625 C80.97858283 71.32093588 84.55518366 76.00165833 88.125 80.6875 C89.12926025 82.00681519 89.12926025 82.00681519 90.15380859 83.3527832 C90.80687988 84.20960693 91.45995117 85.06643066 92.1328125 85.94921875 C92.7712207 86.78759277 93.40962891 87.6259668 94.06738281 88.48974609 C95.38107414 90.19608443 96.70915163 91.89142285 98.04980469 93.57666016 C98.69079102 94.38280762 99.33177734 95.18895508 99.9921875 96.01953125 C100.86012939 97.09811401 100.86012939 97.09811401 101.74560547 98.19848633 C103 100 103 100 103 102 C103.66 102 104.32 102 105 102 C105.26844727 101.42523926 105.53689453 100.85047852 105.81347656 100.25830078 C107.03303936 97.93711644 108.40791957 95.9609624 109.984375 93.8671875 C110.5827417 93.07022461 111.1811084 92.27326172 111.79760742 91.45214844 C112.44189697 90.60168945 113.08618652 89.75123047 113.75 88.875 C114.41813721 87.98844727 115.08627441 87.10189453 115.7746582 86.18847656 C120.76942614 79.57898268 125.84052634 73.03124016 130.94287109 66.50463867 C135.13404829 61.13664883 139.24367297 55.71361191 143.31665039 50.25561523 C149.53965184 41.92235633 155.85604644 33.66034403 162.17138672 25.39697266 C163.80813323 23.25150173 165.43869268 21.10154479 167.06640625 18.94921875 C167.94003943 17.79942997 168.81373175 16.64968613 169.6875 15.5 C170.77611328 14.06140625 170.77611328 14.06140625 171.88671875 12.59375 C176.35230862 7.11287814 181.17163192 2.27612269 188 0 C189.55421729 -0.08106686 191.11167027 -0.10756898 192.66796875 -0.09765625 C193.56064453 -0.09443359 194.45332031 -0.09121094 195.37304688 -0.08789062 C196.76620117 -0.07532227 196.76620117 -0.07532227 198.1875 -0.0625 C199.12787109 -0.05798828 200.06824219 -0.05347656 201.03710938 -0.04882812 C203.35813712 -0.03704626 205.67903644 -0.02059558 208 0 C205.42449924 4.71387525 202.64209048 8.95295773 199.25 13.125 C198.26936093 14.35299229 197.29029357 15.58224076 196.3125 16.8125 C195.78269531 17.47894531 195.25289062 18.14539063 194.70703125 18.83203125 C191.50849759 22.89424219 188.38074938 27.01046267 185.25 31.125 C184.57050293 32.01759521 183.89100586 32.91019043 183.19091797 33.82983398 C177.92895549 40.75389269 172.71738885 47.71492569 167.51147461 54.68115234 C162.76736676 61.01371988 157.92720907 67.26625078 153.05371094 73.49951172 C148.86964155 78.85894786 144.76031185 84.26858475 140.703125 89.72460938 C137.75033765 93.68921853 134.75711753 97.61873099 131.73046875 101.52734375 C130.99876465 102.47569092 130.26706055 103.42403809 129.51318359 104.40112305 C128.0695612 106.26995262 126.62083023 108.13484943 125.16650391 109.99536133 C124.50956543 110.84767334 123.85262695 111.69998535 123.17578125 112.578125 C122.29273315 113.71362793 122.29273315 113.71362793 121.3918457 114.87207031 C119.97284488 117.04151623 119.19294303 118.41610185 119 121 C119.92033109 123.00487023 119.92033109 123.00487023 121.47265625 124.9140625 C122.03549316 125.66582764 122.59833008 126.41759277 123.17822266 127.19213867 C124.11093994 128.39640503 124.11093994 128.39640503 125.0625 129.625 C125.69720215 130.46458252 126.3319043 131.30416504 126.98583984 132.16918945 C128.97550794 134.79139822 130.98426115 137.39779283 133 140 C133.91483154 141.18360107 133.91483154 141.18360107 134.84814453 142.39111328 C137.76391528 146.15755035 140.6930435 149.91327592 143.62890625 153.6640625 C147.33227248 158.40817502 150.94104511 163.21987659 154.54052734 168.04296875 C158.07946892 172.78180897 161.65305809 177.49254424 165.25 182.1875 C165.78391357 182.88456055 166.31782715 183.58162109 166.86791992 184.29980469 C167.98708953 185.76078233 169.10631297 187.22171873 170.22558594 188.68261719 C180.09322412 201.5697418 189.90875522 214.49437749 199.625 227.49609375 C201.71475576 230.29125974 203.81606685 233.07646094 205.9375 235.84765625 C206.36683838 236.410896 206.79617676 236.97413574 207.23852539 237.55444336 C208.34189889 238.99977053 209.45002368 240.44146726 210.55859375 241.8828125 C212 244 212 244 212 246 C199.09508745 246.50116165 189.9355368 246.60434182 179.83129883 237.79345703 C176.58437065 234.61362309 174.05104781 230.9532219 171.4375 227.25 C170.21173233 225.54926798 168.98381039 223.85008684 167.75390625 222.15234375 C167.13273926 221.29366699 166.51157227 220.43499023 165.87158203 219.55029297 C162.95356966 215.57409193 159.92040109 211.69150401 156.875 207.8125 C151.92104198 201.48998437 147.05276689 195.1126706 142.24853516 188.67578125 C138.49163348 183.6449086 134.67748541 178.6610589 130.83984375 173.69140625 C126.46354098 168.01495603 122.13321726 162.30317608 117.79589844 156.59692383 C117.14782227 155.74509521 116.49974609 154.8932666 115.83203125 154.015625 C115.19990723 153.18353516 114.5677832 152.35144531 113.91650391 151.49414062 C112.61025394 149.79418525 111.28890966 148.10574745 109.95458984 146.42773438 C109.31344238 145.62142578 108.67229492 144.81511719 108.01171875 143.984375 C107.43252686 143.26475586 106.85333496 142.54513672 106.2565918 141.80371094 C105 140 105 140 105 138 C104.34 138 103.68 138 103 138 C102.5973291 138.86214111 102.5973291 138.86214111 102.18652344 139.74169922 C100.96696064 142.06288356 99.59208043 144.0390376 98.015625 146.1328125 C97.4172583 146.92977539 96.8188916 147.72673828 96.20239258 148.54785156 C95.23595825 149.82354004 95.23595825 149.82354004 94.25 151.125 C93.58186279 152.01155273 92.91372559 152.89810547 92.2253418 153.81152344 C87.23057386 160.42101732 82.15947366 166.96875984 77.05712891 173.49536133 C72.86207744 178.86831327 68.74822497 184.2960559 64.67236328 189.75976562 C59.88011409 196.17877044 55.02217362 202.54686102 50.15307617 208.90771484 C46.69305983 213.43537212 43.26428377 217.98175727 39.890625 222.57421875 C39.22651611 223.47430664 38.56240723 224.37439453 37.87817383 225.30175781 C36.6236328 227.00562308 35.37560046 228.71430841 34.13549805 230.42871094 C28.73078309 237.75275065 23.20497496 243.97060648 14 246 C10.81612152 246.30753372 7.69444636 246.28895229 4.5 246.1875 C3.67757812 246.17396484 2.85515625 246.16042969 2.0078125 246.14648438 C0.00491779 246.11155016 -1.99763356 246.05776057 -4 246 C-2.4062835 240.81280809 0.84797995 237.10101033 4.1875 232.9375 C5.46381987 231.32286249 6.73850295 229.70693008 8.01171875 228.08984375 C8.67091309 227.25308105 9.33010742 226.41631836 10.00927734 225.55419922 C13.23480438 221.41568268 16.36655728 217.20841044 19.5 213 C24.32761292 206.52837227 29.21400169 200.1102202 34.1875 193.75 C38.97181945 187.63109324 43.68331907 181.4659617 48.32763672 175.24023438 C52.45248135 169.7151883 56.62760288 164.22966083 60.8125 158.75 C66.29824855 151.56211901 71.75966301 144.35672922 77.1875 137.125 C77.79891846 136.3112793 78.41033691 135.49755859 79.0402832 134.65917969 C80.1769038 133.14241895 81.30757962 131.62117796 82.43115234 130.09472656 C83.45778809 128.72396174 84.51481925 127.3753213 85.60400391 126.05371094 C87.24515766 124.08067656 87.24515766 124.08067656 89 121 C87.97312233 117.34144979 86.17680923 114.6361489 83.8671875 111.65625 C83.23417725 110.83310303 82.60116699 110.00995605 81.94897461 109.16186523 C81.26456299 108.28344971 80.58015137 107.40503418 79.875 106.5 C78.41523966 104.60556501 76.9556078 102.711031 75.49609375 100.81640625 C74.74827637 99.84977051 74.00045898 98.88313477 73.22998047 97.88720703 C69.77908123 93.41924837 66.35766805 88.92900027 62.9375 84.4375 C62.2775 83.57213623 61.6175 82.70677246 60.9375 81.81518555 C56.38387241 75.83854934 51.87206827 69.83176074 47.375 63.8125 C41.94690013 56.54864542 36.42606342 49.36431979 30.84277344 42.21923828 C27.02495046 37.33029783 23.2697285 32.40131706 19.5703125 27.421875 C17.38458018 24.4940617 15.15830225 21.59840208 12.9296875 18.703125 C12.20185059 17.75542236 11.47401367 16.80771973 10.72412109 15.83129883 C9.25895831 13.92497891 7.7906086 12.02110352 6.31884766 10.11987305 C5.64644043 9.24371338 4.9740332 8.36755371 4.28125 7.46484375 C3.67345703 6.677146 3.06566406 5.88944824 2.43945312 5.07788086 C1 3 1 3 0 0 Z " fill="white" transform="translate(241,130)"/>
</svg>
