<?xml version="1.0" encoding="UTF-8"?>
<svg version="1.1" xmlns="http://www.w3.org/2000/svg" width="320" height="320">
<path d="M0 0 C14 0 14 0 17.97265625 3.15625 C19.04693476 4.5715878 20.07584397 6.02224317 21.0625 7.5 C22.22204839 9.06425286 23.38222002 10.62804389 24.54296875 12.19140625 C25.11321777 12.9920752 25.6834668 13.79274414 26.27099609 14.61767578 C28.98237797 18.35357869 31.9328397 21.88274662 34.875 25.4375 C35.95100739 26.76026578 37.02529042 28.08443654 38.09765625 29.41015625 C38.59539551 30.0252002 39.09313477 30.64024414 39.60595703 31.27392578 C42.75283211 35.17031927 45.87769453 39.08388806 49 43 C51.64 46.3 54.28 49.6 57 53 C57.33 35.51 57.66 18.02 58 0 C75.16 0 92.32 0 110 0 C110 3.3 110 6.6 110 10 C96.8 10 83.6 10 70 10 C70 14.29 70 18.58 70 23 C80.56 23 91.12 23 102 23 C102 26.63 102 30.26 102 34 C91.44 34 80.88 34 70 34 C70 38.62 70 43.24 70 48 C83.2 48 96.4 48 110 48 C110 51.3 110 54.6 110 58 C101.75050186 58.37316224 93.50460346 58.65615492 85.2487154 58.82899475 C81.41331949 58.91202318 77.58374923 59.02423947 73.75170898 59.20703125 C46.94299488 60.45264478 46.94299488 60.45264478 40.21923828 54.62426758 C37.30595641 51.39538356 35.13829358 47.92868749 33.14700317 44.07514954 C31.24702271 40.63771913 28.74090832 37.70828334 26.25 34.6875 C25.45078125 33.66011719 24.6515625 32.63273437 23.828125 31.57421875 C19.94583262 26.66773046 15.96195492 21.84238935 12 17 C11.67 30.53 11.34 44.06 11 58 C7.37 58 3.74 58 0 58 C0 38.86 0 19.72 0 0 Z " fill="white" transform="translate(16,131)"/>
<path d="M0 0 C12.82042411 -1.52020839 12.82042411 -1.52020839 17.7890625 1.9453125 C20.08264082 4.52263247 22.06451489 7.14536192 24 10 C25.14131661 11.52422586 26.28664465 13.04546341 27.4375 14.5625 C27.88996094 15.20316406 28.34242188 15.84382812 28.80859375 16.50390625 C29.94705759 18.14898066 29.94705759 18.14898066 32 19 C32.28270752 18.41573242 32.56541504 17.83146484 32.85668945 17.22949219 C36.06516595 10.97286024 41.06046004 1.68450065 48.03173828 -0.69287109 C52.43544712 -1.29677901 56.63409072 -0.80518819 61 0 C59.67353054 2.85906882 58.18097205 5.18514288 56.171875 7.609375 C55.61886719 8.28226563 55.06585938 8.95515625 54.49609375 9.6484375 C53.63177734 10.68871094 53.63177734 10.68871094 52.75 11.75 C51.05397098 13.8008305 49.3631456 15.85471356 47.68945312 17.92382812 C46.53670648 19.34044047 45.36237872 20.73969513 44.16992188 22.12304688 C42.59531201 24.03085064 41.18868017 25.83076173 40 28 C40.53410436 32.58097202 44.14233112 35.81313183 47.125 39.1875 C48.1142275 40.33251651 49.10249925 41.47835939 50.08984375 42.625 C50.57952637 43.19089844 51.06920898 43.75679687 51.57373047 44.33984375 C53.65093894 46.75768312 55.67748489 49.21363525 57.6875 51.6875 C58.33074219 52.47511719 58.97398437 53.26273438 59.63671875 54.07421875 C61 56 61 56 61 58 C55.88202343 59.09670927 50.99937183 59.78147948 46 58 C40.85502069 54.10767694 37.255553 48.49168935 33.59179688 43.25683594 C31.34673629 40.07380833 28.92868134 37.04346369 26.5 34 C25.6193585 32.87143163 24.73915807 31.74251895 23.859375 30.61328125 C20.55973405 26.41363155 17.15462748 22.30213547 13.75 18.1875 C0 1.56131916 0 1.56131916 0 0 Z " fill="white" transform="translate(136,131)"/>
<path d="M0 0 C16.83 0 33.66 0 51 0 C51 3.3 51 6.6 51 10 C44.73 10.33 38.46 10.66 32 11 C32 26.51 32 42.02 32 58 C28.04 58 24.08 58 20 58 C20 42.16 20 26.32 20 10 C13.4 10 6.8 10 0 10 C0 6.7 0 3.4 0 0 Z " fill="white" transform="translate(207,131)"/>
<path d="M0 0 C2.31279611 1.15639806 4.17409828 2.17409828 6 4 C6.04063832 5.66617115 6.042721 7.33388095 6 9 C4.35 9 2.7 9 1 9 C0.67 8.01 0.34 7.02 0 6 C-2.97065509 6.34227572 -2.97065509 6.34227572 -6 7 C-6.33 7.66 -6.66 8.32 -7 9 C-5.96939453 9.29003906 -5.96939453 9.29003906 -4.91796875 9.5859375 C-4.01691406 9.84632813 -3.11585938 10.10671875 -2.1875 10.375 C-1.29417969 10.63023437 -0.40085937 10.88546875 0.51953125 11.1484375 C3 12 3 12 6 14 C6.43359375 16.05859375 6.43359375 16.05859375 6.4375 18.4375 C6.46650391 19.61119141 6.46650391 19.61119141 6.49609375 20.80859375 C6 23 6 23 4.31640625 24.7578125 C0.10563009 27.01586785 -4.3601635 26.64167952 -9 26 C-11.84395849 24.10402768 -12.64296925 22.96123662 -13.8125 19.8125 C-13.874375 19.214375 -13.93625 18.61625 -14 18 C-13 17 -13 17 -10.5625 16.75 C-9.2940625 16.87375 -9.2940625 16.87375 -8 17 C-7.34 17.99 -6.68 18.98 -6 20 C-3.41619823 20.25030977 -3.41619823 20.25030977 -1 20 C-1 19.01 -1 18.02 -1 17 C-1.61488281 16.81824219 -2.22976563 16.63648438 -2.86328125 16.44921875 C-3.67152344 16.19785156 -4.47976563 15.94648438 -5.3125 15.6875 C-6.11300781 15.44386719 -6.91351563 15.20023438 -7.73828125 14.94921875 C-10.14823672 13.93778666 -11.39668192 13.04981172 -13 11 C-13.4375 8.0625 -13.4375 8.0625 -13 5 C-9.0739479 0.15786907 -6.14399577 -0.41654209 0 0 Z " fill="white" transform="translate(298,163)"/>
<path d="M0 0 C3.73745963 1.71529726 5.7453688 3.49279591 8 7 C7.11540932 13.30834105 2.21402361 19.26659614 -2.17871094 23.69042969 C-7.2506923 27.33736106 -14.19548269 25.91765267 -20 25 C-13.65720301 16.39878287 -7.01267135 8.06457206 0 0 Z " fill="white" transform="translate(156,164)"/>
<path d="M0 0 C1.98 0 3.96 0 6 0 C6.11660824 3.39554235 6.18738372 6.79056679 6.25 10.1875 C6.30027344 11.62706055 6.30027344 11.62706055 6.3515625 13.09570312 C6.41224806 17.48023483 6.41659655 20.24562246 4.265625 24.140625 C1.05975336 26.77165069 -0.87255041 26.65633976 -4.87109375 26.42578125 C-7 26 -7 26 -9.5625 24.25 C-11 22 -11 22 -11 18 C-9.02 18 -7.04 18 -5 18 C-4.67 18.66 -4.34 19.32 -4 20 C-3.01 20 -2.02 20 -1 20 C-0.67 13.4 -0.34 6.8 0 0 Z " fill="white" transform="translate(276,163)"/>
<path d="M0 0 C1.65 0 3.3 0 5 0 C5.38218767 1.65614657 5.71395102 3.32457024 6 5 C5 6 5 6 2.4375 6.0625 C1.2309375 6.0315625 1.2309375 6.0315625 0 6 C-1.125 2.25 -1.125 2.25 0 0 Z " fill="white" transform="translate(257,183)"/>
</svg>
